<?xml version="1.0" encoding="UTF-8"?><svg xmlns="http://www.w3.org/2000/svg" xmlns:xlink="http://www.w3.org/1999/xlink" viewBox="0 0 814.1 764.07"><defs><style>.cls-1{fill:#f69280;mix-blend-mode:screen;opacity:.68;}.cls-2{fill:url(#linear-gradient);}.cls-3{fill:#d32027;}.cls-4{fill:#c6c6c5;}.cls-5{fill:#e18172;}.cls-6{fill:#7b1315;}.cls-7{fill:url(#linear-gradient-8);}.cls-8{fill:url(#linear-gradient-9);}.cls-9{fill:url(#linear-gradient-3);}.cls-10{fill:url(#linear-gradient-4);}.cls-11{fill:url(#linear-gradient-2);}.cls-12{fill:url(#linear-gradient-6);}.cls-13{fill:url(#linear-gradient-7);}.cls-14{fill:url(#linear-gradient-5);}.cls-15{fill:url(#linear-gradient-14);}.cls-16{fill:url(#linear-gradient-15);}.cls-17{fill:url(#linear-gradient-16);}.cls-18{fill:url(#linear-gradient-13);}.cls-19{fill:url(#linear-gradient-12);}.cls-20{fill:url(#linear-gradient-10);}.cls-21{fill:url(#linear-gradient-11);}.cls-22{isolation:isolate;}.cls-23{fill:#b52026;}.cls-23,.cls-24{opacity:.7;}.cls-24{fill:#991c21;}</style><linearGradient id="linear-gradient" x1="308.79" y1="213.2" x2="158.26" y2="200.24" gradientUnits="userSpaceOnUse"><stop offset="0" stop-color="#f8c6a2"/><stop offset=".7" stop-color="#f9bb9b"/><stop offset="1" stop-color="#fab597"/></linearGradient><linearGradient id="linear-gradient-2" x1="51.43" y1="209.66" x2="378.81" y2="209.66" gradientUnits="userSpaceOnUse"><stop offset="0" stop-color="#f7b08a"/><stop offset=".39" stop-color="#f1a582"/><stop offset="1" stop-color="#e38c72"/></linearGradient><linearGradient id="linear-gradient-3" x1="182.65" y1="158.61" x2="392.1" y2="158.61" xlink:href="#linear-gradient-2"/><linearGradient id="linear-gradient-4" x1="24.42" y1="119.85" x2="48.35" y2="107.63" xlink:href="#linear-gradient"/><linearGradient id="linear-gradient-5" x1="9.41" y1="74.24" x2="55.43" y2="102.98" xlink:href="#linear-gradient-2"/><linearGradient id="linear-gradient-6" x1="55.38" y1="180.12" x2="46.16" y2="147.97" xlink:href="#linear-gradient"/><linearGradient id="linear-gradient-7" x1="4.61" y1="165.88" x2="101.86" y2="165.88" xlink:href="#linear-gradient-2"/><linearGradient id="linear-gradient-8" x1="75.19" y1="218" x2="62.73" y2="201.55" xlink:href="#linear-gradient"/><linearGradient id="linear-gradient-9" x1="11.78" y1="211.77" x2="124.06" y2="211.77" xlink:href="#linear-gradient-2"/><linearGradient id="linear-gradient-10" x1="86.53" y1="274.42" x2="65.6" y2="243.77" xlink:href="#linear-gradient"/><linearGradient id="linear-gradient-11" x1="43.15" y1="110.54" x2="200.14" y2="110.54" xlink:href="#linear-gradient"/><linearGradient id="linear-gradient-12" x1="95.06" y1="177.19" x2="80.44" y2="138.64" xlink:href="#linear-gradient-2"/><linearGradient id="linear-gradient-13" x1="76.5" y1="127.48" x2="143.92" y2="127.48" xlink:href="#linear-gradient-2"/><linearGradient id="linear-gradient-14" x1="43.15" y1="81.18" x2="200.14" y2="81.18" xlink:href="#linear-gradient-2"/><linearGradient id="linear-gradient-15" x1="23.56" y1="259.26" x2="119.5" y2="259.26" xlink:href="#linear-gradient-2"/><linearGradient id="linear-gradient-16" x1="26.5" y1="56.45" x2="52.75" y2="73.9" gradientUnits="userSpaceOnUse"><stop offset="0" stop-color="#f5a078"/><stop offset=".38" stop-color="#ed9571"/><stop offset="1" stop-color="#dc7a60"/></linearGradient></defs><g class="cls-22"><g id="Layer_2"><g id="Layer_1-2"><g><g><path class="cls-2" d="m391.67,241.03c-1.35,23.53-6.46,42.17-12.86,56.64-14.52,33.06-35.82,44.62-35.82,44.62,0,0-81.06-28.22-133.22-43.52-79.44,24.26-138.27,3.02-138.27,3.02,0,0-12.96-5.73-19.94-21.45-3.23-103.65,51.7-184.24,76.11-195.74,8.23-3.85,17.49-6.25,26.71-7.55,9.94-1.46,19.78-1.56,28.27-.83,7.08.62,13.17,1.87,17.49,3.49,14.26,5.41,46.02,29.36,52.06,60.75,0,0,49.93,26.08,136.34,43.37,3.38,21.71,4.16,40.71,3.12,57.21Z"/><path class="cls-11" d="m378.81,297.67c-14.52,33.06-35.82,44.62-35.82,44.62,0,0-81.06-28.22-133.22-43.52-79.44,24.26-138.27,3.02-138.27,3.02,0,0-12.96-5.73-19.94-21.45-3.23-103.65,51.7-184.24,76.11-195.74,8.23-3.85,17.49-6.25,26.71-7.55-19.31,14.22-19.52,31.76-23.27,39.31-4.01,7.96,12.44,21.71-2.29,46.59,7.5,24.21,20.3,50.91,73.61,60.23-17.28,5.31-40.35,3.49-70.59-18.12,2.65,14.16,3.23,20.93-10.2,31.65,3.02,3.02,17.91,34.88-6.98,49.93,2.24,4.58,26.65,10.15,42.85,0,16.19,8.07,60.55,2.65,73.77-30.98,35.5,45.03,94.9,70.64,147.54,42.01Z"/><path class="cls-5" d="m125.98,200.08c4.83,4.95,10.74,8.51,16.77,11.68,6.08,3.11,12.36,5.83,18.87,7.85,6.45,2.21,13.11,3.74,19.86,4.6,6.74.84,13.64.87,20.4-.64-6.47,2.57-13.64,3.09-20.58,2.64-6.98-.47-13.83-2.06-20.48-4.13-6.59-2.28-13.03-5.02-19.03-8.58-5.93-3.58-11.77-7.74-15.81-13.42Z"/><path class="cls-4" d="m131.84,100.72c3.32,221.11,6.64,442.23,9.96,663.34h-38.61c0-216.07-.01-432.15-.02-648.22l28.66-15.12Z"/><path class="cls-4" d="m90.28,54.06c-.91-.95-8.94-9.61-6.62-19.43,3.17-13.39,23.36-19.59,29.24-14.11,5.6,5.22-1.59,21.2-2.36,22.86l18.6-6.67c1.15-4.82,4.94-22.79-4.25-31.42-13.22-12.39-49.65-2.11-57.56,21.54-5.95,17.8,6.95,35.08,8.54,37.14,4.81-3.3,9.61-6.61,14.42-9.91Z"/><path class="cls-9" d="m391.67,241.03c-24.21-74.34-134.21-83.56-134.21-83.56,0,0,5.1,25.04-11.71,41.86,8.69-24.42.73-87.72-52.84-97.66-1.72-8.28-6.77-18.74-10.26-25.46,7.08.62,13.17,1.87,17.49,3.49,14.26,5.41,46.02,29.36,52.06,60.75,0,0,49.93,26.08,136.34,43.37,3.38,21.71,4.16,40.71,3.12,57.21Z"/><path class="cls-10" d="m100.92,123.06c-6.19,11.97-27.64,22.18-66.79,14.99-12.39-2.29-20.3-6.77-25.35-11.82C-2.21,115.4.23,101.87.23,101.87c0,0,9.94-18.9,28.95-31.24,3.38-2.24,7.03-4.22,10.93-5.88,14.94,0,29.93,1.98,60.81,13.22,0,0,6.25,33.16,0,45.08Z"/><path class="cls-14" d="m100.92,123.06c-6.19,11.97-27.64,22.18-66.79,14.99-12.39-2.29-20.3-6.77-25.35-11.82,21.4-2.76,13.54-13.85,21.4-23.64,8.28-10.36,10.31-19.94,2.29-24.31-3.38-1.82-3.85-4.79-3.28-7.65,3.38-2.24,7.03-4.22,10.93-5.88,14.94,0,29.93,1.98,60.81,13.22,0,0,6.25,33.16,0,45.08Z"/><path class="cls-12" d="m98.1,189.43c-4.79,8.49-30.72,15.15-57.32,9.32-2.03-.47-4.01-.99-5.88-1.61-22.33-7.18-31.65-24.16-31.65-24.16,0,0-1.67-13.01,1.35-24.88.68-2.65,1.56-5.26,2.81-7.65,8.02-8.07,17.44-9.63,17.44-9.63,0,0,35.71,0,55.81,9.63,27.07,12.96,22.28,40.55,17.44,48.99Z"/><path class="cls-13" d="m98.1,189.43c-4.79,8.49-30.72,15.15-57.32,9.32-2.03-.47-4.01-.99-5.88-1.61,18.74-6.66,27.44-20.36,29-31.29,1.82-12.91-14.16-17.75-30.4-23.27-14.63-4.89-13.85-6.2-28.89,5.52.68-2.65,1.56-5.26,2.81-7.65,8.02-8.07,17.44-9.63,17.44-9.63,0,0,35.71,0,55.81,9.63,27.07,12.96,22.28,40.55,17.44,48.99Z"/><path class="cls-7" d="m123.72,214.42c-7.44,17.34-17.08,24.26-28.79,27.49-8.95,2.45-19.11,2.65-30.4,3.7-18.01,1.61-30.98-3.12-40.81-11.04-4.32-3.44-8.07-7.5-11.35-11.87-1.3-6.51,0-23.79,0-23.79,0,0,15.77-14.84,28.58-15.93,62.99-5.47,79.76,7.44,79.76,7.44,0,0,4.63,11.14,3.02,24Z"/><path class="cls-8" d="m123.72,214.42c-7.44,17.34-17.08,24.26-28.79,27.49,4.79-7.39,10.18-16.64,11.14-26.19,1.09-10.91-6.17-14.3-23.33-20.63-15.84-5.84-33.33-3.75-47.35,3.61-10.58,5.56-20.47,10.24-11.68,35.86-4.32-3.44-8.07-7.5-11.35-11.87-1.3-6.51,0-23.79,0-23.79,0,0,15.77-14.84,28.58-15.93,62.99-5.47,79.76,7.44,79.76,7.44,0,0,4.63,11.14,3.02,24Z"/><path class="cls-20" d="m119.5,245.92c0,10.31-4.01,22.8-4.01,22.8,0,0,0,3.12-15.05,13.59-5.73,2.03-13.33,3.38-21.4,3.96-12.96.99-27.02.05-35.82-3.18-5.21-3.59-9.16-8.38-12.08-13.07-5.67-9.01-7.6-17.86-7.6-17.86,0,0,10.46-12.18,18.33-16.56,25.67-5.88,63.67-2.24,63.67-2.24,0,0,6.09,2.86,13.95,12.55Z"/><path class="cls-21" d="m200.14,79.69s-5.47,3.18-13.43,5.26c-8.8,2.24-20.67,3.18-31.6-3.02-2.13,5.67-6.66,9.94-11.19,12.96-6.04,4.01-12.08,5.83-12.08,5.83,0,0-1.41,11.3-11.35,16.61,10.36,24.94-3.12,51.49-12.08,62.58-5.52,6.82-13.59,9.11-20.1,6.51-1.93-.73-3.7-1.93-5.26-3.54-1.72-1.82-3.18-4.17-4.16-7.08-2.39-6.98-5.67-17.39-10.46-28.53-2.6-6.09-5.67-12.39-9.32-18.43.05-.05.05-.1,0-.1-3.33-5.62-7.08-11.04-11.4-15.88-5.57-7.6-4.48-15.1-4.48-15.1,0,0,34.52-52.22,99.07-64.14,37.54,10.31,57.84,46.07,57.84,46.07Z"/><path class="cls-19" d="m83.06,182.87c-1.72-1.82-3.18-4.17-4.16-7.08-2.29-6.66-5.41-16.56-9.89-27.18-.16-.42-.36-.88-.57-1.35,9.58-2.34,17.23-8.07,20.77-11.04,1.41-1.15,2.13-1.93,2.13-1.93,0,0,11.45,15.93,12.96,29,1.35,11.97-5.26,22.13-21.24,19.57Z"/><path class="cls-18" d="m143.92,94.89c-6.04,4.01-12.08,5.83-12.08,5.83,0,0-1.41,11.3-11.35,16.61,10.36,24.94-3.12,51.49-12.08,62.58-5.52,6.82-13.59,9.11-20.1,6.51,14.16-.88,24.88-11.66,28.42-28.53,3.64-17.6,1.46-52.68-40.24-46.38,9.84-2.6,23.22-15.57,2.34-25.35,9.94,4.48,51.07,15.51,60.29-18.64,0,11.71-.31,26.6,4.79,27.38Z"/><path class="cls-15" d="m200.14,79.69s-5.47,3.18-13.43,5.26c-5-9.53-17.23-23.9-31.96-33.89-18.59-7.5-33.37-2.65-54.66,7.13-21.24,9.79-43.37,29.1-47.79,41.39-4.06,11.45-.05,6.46,6.82,29.15-3.33-5.62-7.08-11.04-11.4-15.88-5.57-7.6-4.48-15.1-4.48-15.1,0,0,34.52-52.22,99.07-64.14,37.54,10.31,57.84,46.07,57.84,46.07Z"/><path class="cls-16" d="m119.5,245.92c0,10.31-4.01,22.8-4.01,22.8,0,0,0,3.12-15.05,13.59-5.73,2.03-13.33,3.38-21.4,3.96,6.72-6.04,15.98-15.25,19.05-22.7,5-12.13-1.36-17.68-13.12-20.24-11.1-2.41-25.56-1.76-36.35,1.41-9.35,2.75-17.9,6.39-17.48,25.29-5.67-9.01-7.6-17.86-7.6-17.86,0,0,10.46-12.18,18.33-16.56,25.67-5.88,63.67-2.24,63.67-2.24,0,0,6.09,2.86,13.95,12.55Z"/><path class="cls-17" d="m56.49,81.74c1.94-2.04,4.07-4.2,6.42-6.43-5.18-1.45-8.92-5.39-8.92-5.39,0,0,1.83,2.24,4.49,5.86-6.15,0-17.03-4.11-17.03-4.11,0,0,12.05,5.4,15.04,10.08Z"/><path class="cls-5" d="m133.33,96.74c-.4-3.26-.06-6.3.47-9.31.62-2.99,1.43-5.93,3.02-8.8.43,3.17.07,6.26-.47,9.31-.64,3.03-1.46,6.03-3.02,8.8Z"/><path class="cls-5" d="m96.07,98.52c2.59-.42,5.35-.45,7.97.3,2.66.61,5.15,1.9,7.3,3.58,2.14,1.7,4.01,3.72,5.39,6.04,1.39,2.3,2.48,4.77,2.9,7.41-2.83-4.43-5.96-8.38-9.88-11.39-1.9-1.56-4.06-2.76-6.34-3.74-2.27-1.07-4.76-1.53-7.33-2.19Z"/><path class="cls-5" d="m19.02,144.42l-.9,7.72c-.25,2.55-.55,5.07-.72,7.62-.46,5.08-.67,10.15-1.03,15.4-.88-2.5-1.28-5.12-1.53-7.73-.28-2.62-.22-5.26-.03-7.88.45-5.23,1.71-10.47,4.22-15.12Z"/><path class="cls-5" d="m30.65,200.25c0,4.66.28,9.02.71,13.5.39,4.47.93,8.92,1.11,13.58-1.12-2.07-1.85-4.27-2.46-6.5-.64-2.23-.99-4.53-1.24-6.84-.17-2.32-.23-4.66.06-6.98.3-2.32.8-4.64,1.82-6.76Z"/><path class="cls-5" d="m114.22,192.44c1.89,4.66,2.32,9.79,2.08,14.75-.18,2.49-.46,4.97-1.05,7.4-.57,2.42-1.25,4.83-2.36,7.09.14-5,.56-9.81.81-14.64.19-2.41.22-4.82.36-7.24.11-2.43.06-4.85.16-7.36Z"/><path class="cls-5" d="m41.12,245.92c-.57,2.42-.95,4.72-1.02,7.05.03,2.33.16,4.64.51,6.95.69,4.63,1.96,9.17,3.25,13.93-1.61-1.9-2.77-4.1-3.76-6.38-1-2.27-1.66-4.7-2.06-7.17-.32-2.49-.39-5.05.08-7.54.5-2.49,1.46-4.89,3-6.84Z"/><path class="cls-5" d="m108.04,242.7c1.32,2.12,2.1,4.59,2.39,7.12.28,2.53.04,5.1-.45,7.58-.59,2.46-1.4,4.85-2.57,7.07-1.15,2.22-2.47,4.35-4.23,6.14,1.66-4.68,3.23-9.16,4.25-13.77.52-2.3.8-4.61,1-6.96.13-2.36-.08-4.7-.39-7.18Z"/><path class="cls-5" d="m214.08,294.54c3.08-3.27,5.9-6.61,7.98-10.45,2.01-3.85,3.7-7.85,4.83-12.05,2.27-8.41,3.1-17.19,3.14-26.12,1.07,4.36,1.35,8.89,1.27,13.39-.08,4.52-.76,9.02-1.91,13.43-1.25,4.38-3.1,8.61-5.64,12.4-2.54,3.81-5.92,6.98-9.67,9.4Z"/><path class="cls-5" d="m253.79,143.09c4.81,8.27,6.6,18.27,5.76,27.9-.9,9.6-4.69,19.25-11.6,25.94,5.26-7.96,8.18-16.95,9.01-26.18.88-9.24-.25-18.6-3.17-27.66Z"/><path class="cls-1" d="m89.2,136.23c-1.82,5.88-7.03,15.41-20.2,12.39-.16-.42-.36-.88-.57-1.35,9.58-2.34,17.23-8.07,20.77-11.04Z"/></g><g><g><path class="cls-3" d="m388.55,159.79l425.56,54v269.28c-82.23-19.42-164.23-39.69-246.02-60.81-78.53-20.28-156.85-41.34-234.98-63.19,12.85-31.37,25.54-67.46,36.3-107.97,8.66-32.62,14.8-63.27,19.14-91.3Z"/><g><path class="cls-23" d="m383.1,191.2c143.67,21.01,287.34,42.02,431.01,63.02v46.22c-145.7-26.74-291.4-53.47-437.1-80.21,1.1-4.75,2.17-9.6,3.21-14.55,1.03-4.9,1.99-9.74,2.88-14.49Z"/><path class="cls-23" d="m367.26,259.02l446.85,78.79v49.17c-151.82-32.9-303.64-65.8-455.46-98.69,1.51-4.76,3.01-9.63,4.47-14.6,1.46-4.96,2.84-9.85,4.15-14.67Z"/><path class="cls-23" d="m342.71,334.58c157.13,37.3,314.26,74.6,471.39,111.9v36.58c-76.77-18.13-153.35-37.01-229.74-56.62-83.99-21.57-167.74-44.02-251.26-67.38,1.66-4.04,3.31-8.15,4.95-12.33,1.61-4.09,3.16-8.15,4.66-12.16Z"/><path class="cls-24" d="m550.15,417.44c17.28-76.81,34.56-153.61,51.85-230.42l-63.84-8.1c-17.78,73.81-35.56,147.61-53.33,221.42,9.07,2.45,18.21,4.89,27.39,7.3,12.72,3.35,25.37,6.61,37.93,9.8Z"/><path class="cls-24" d="m610.93,433.06c14.7-79.82,29.39-159.64,44.09-239.46l59.6,7.56c-11.43,83.17-22.86,166.34-34.28,249.51-12.44-3.09-24.94-6.22-37.48-9.41-10.69-2.72-21.33-5.45-31.92-8.2Z"/><path class="cls-24" d="m814.1,483.07V213.79l-51.14-6.49c-10.64,85.26-21.28,170.53-31.92,255.79,27.69,6.66,55.37,13.32,83.06,19.97Z"/><path class="cls-24" d="m407.24,379.54c17.89-70.19,35.78-140.38,53.66-210.57l-72.35-9.18c-4.34,28.04-10.48,58.68-19.14,91.3-10.76,40.51-23.45,76.61-36.3,107.97,24.71,6.83,49.42,13.65,74.13,20.48Z"/></g></g><g><path class="cls-6" d="m333.1,359.07c-.64-3.52-1.09-7.89-.84-12.87.13-2.69.45-5.14.84-7.33,2.35.82,4.7,1.64,7.05,2.46l-7.05,17.74Z"/><path class="cls-6" d="m388.58,159.79c-2.03,2.93-4.23,6.52-6.26,10.77-1.93,4.03-3.3,7.79-4.29,11.07,2.2.46,4.39.92,6.59,1.39.79-4.22,1.55-8.51,2.28-12.87.59-3.49,1.15-6.94,1.67-10.36Z"/></g></g></g></g></g></g></svg>